<mxfile host="app.diagrams.net" modified="2022-08-25T17:57:37.711Z" agent="5.0 (Macintosh; Intel Mac OS X 10_15_7) AppleWebKit/537.36 (KHTML, like Gecko) Chrome/104.0.0.0 Safari/537.36" etag="bKdKIzUbsZDYgLzuBxsb" version="20.2.7" type="github">
  <diagram id="C5RBs43oDa-KdzZeNtuy" name="Page-1">
    <mxGraphModel dx="1487" dy="836" grid="1" gridSize="10" guides="1" tooltips="1" connect="1" arrows="1" fold="1" page="1" pageScale="1" pageWidth="827" pageHeight="1169" math="0" shadow="0">
      <root>
        <mxCell id="WIyWlLk6GJQsqaUBKTNV-0" />
        <mxCell id="WIyWlLk6GJQsqaUBKTNV-1" parent="WIyWlLk6GJQsqaUBKTNV-0" />
        <mxCell id="DhkU2p6pfQPHo_M8S7Rk-41" style="edgeStyle=orthogonalEdgeStyle;rounded=0;orthogonalLoop=1;jettySize=auto;html=1;" edge="1" parent="WIyWlLk6GJQsqaUBKTNV-1" source="DhkU2p6pfQPHo_M8S7Rk-0" target="DhkU2p6pfQPHo_M8S7Rk-3">
          <mxGeometry relative="1" as="geometry" />
        </mxCell>
        <mxCell id="DhkU2p6pfQPHo_M8S7Rk-0" value="start" style="rounded=1;whiteSpace=wrap;html=1;fillColor=#d5e8d4;strokeColor=#82b366;" vertex="1" parent="WIyWlLk6GJQsqaUBKTNV-1">
          <mxGeometry x="210" y="60" width="120" height="30" as="geometry" />
        </mxCell>
        <mxCell id="DhkU2p6pfQPHo_M8S7Rk-1" value="stop" style="rounded=1;whiteSpace=wrap;html=1;fillColor=#f8cecc;strokeColor=#b85450;" vertex="1" parent="WIyWlLk6GJQsqaUBKTNV-1">
          <mxGeometry x="210" y="500" width="120" height="20" as="geometry" />
        </mxCell>
        <mxCell id="DhkU2p6pfQPHo_M8S7Rk-26" value="" style="edgeStyle=orthogonalEdgeStyle;rounded=0;orthogonalLoop=1;jettySize=auto;html=1;" edge="1" parent="WIyWlLk6GJQsqaUBKTNV-1" source="DhkU2p6pfQPHo_M8S7Rk-2" target="DhkU2p6pfQPHo_M8S7Rk-1">
          <mxGeometry relative="1" as="geometry" />
        </mxCell>
        <mxCell id="DhkU2p6pfQPHo_M8S7Rk-2" value="output min1 &lt;br&gt;and min 2" style="shape=parallelogram;perimeter=parallelogramPerimeter;whiteSpace=wrap;html=1;fixedSize=1;fillColor=#e1d5e7;strokeColor=#9673a6;" vertex="1" parent="WIyWlLk6GJQsqaUBKTNV-1">
          <mxGeometry x="210" y="440" width="120" height="30" as="geometry" />
        </mxCell>
        <mxCell id="DhkU2p6pfQPHo_M8S7Rk-42" style="edgeStyle=orthogonalEdgeStyle;rounded=0;orthogonalLoop=1;jettySize=auto;html=1;entryX=0.5;entryY=0;entryDx=0;entryDy=0;" edge="1" parent="WIyWlLk6GJQsqaUBKTNV-1" source="DhkU2p6pfQPHo_M8S7Rk-3" target="DhkU2p6pfQPHo_M8S7Rk-5">
          <mxGeometry relative="1" as="geometry" />
        </mxCell>
        <mxCell id="DhkU2p6pfQPHo_M8S7Rk-3" value="init min1 to list item 1 and min2 to list item 2" style="rounded=0;whiteSpace=wrap;html=1;fillColor=#dae8fc;strokeColor=#6c8ebf;" vertex="1" parent="WIyWlLk6GJQsqaUBKTNV-1">
          <mxGeometry x="205" y="120" width="130" height="30" as="geometry" />
        </mxCell>
        <mxCell id="DhkU2p6pfQPHo_M8S7Rk-12" style="edgeStyle=orthogonalEdgeStyle;rounded=0;orthogonalLoop=1;jettySize=auto;html=1;exitX=0.5;exitY=1;exitDx=0;exitDy=0;entryX=0.5;entryY=0;entryDx=0;entryDy=0;" edge="1" parent="WIyWlLk6GJQsqaUBKTNV-1" source="DhkU2p6pfQPHo_M8S7Rk-4" target="DhkU2p6pfQPHo_M8S7Rk-6">
          <mxGeometry relative="1" as="geometry" />
        </mxCell>
        <mxCell id="DhkU2p6pfQPHo_M8S7Rk-15" style="edgeStyle=orthogonalEdgeStyle;rounded=0;orthogonalLoop=1;jettySize=auto;html=1;entryX=0.5;entryY=0;entryDx=0;entryDy=0;" edge="1" parent="WIyWlLk6GJQsqaUBKTNV-1" source="DhkU2p6pfQPHo_M8S7Rk-4" target="DhkU2p6pfQPHo_M8S7Rk-11">
          <mxGeometry relative="1" as="geometry" />
        </mxCell>
        <mxCell id="DhkU2p6pfQPHo_M8S7Rk-4" value="item &amp;lt; min1" style="rhombus;whiteSpace=wrap;html=1;fillColor=#ffe6cc;strokeColor=#d79b00;" vertex="1" parent="WIyWlLk6GJQsqaUBKTNV-1">
          <mxGeometry x="175" y="230" width="190" height="20" as="geometry" />
        </mxCell>
        <mxCell id="DhkU2p6pfQPHo_M8S7Rk-43" style="edgeStyle=orthogonalEdgeStyle;rounded=0;orthogonalLoop=1;jettySize=auto;html=1;entryX=0.5;entryY=0;entryDx=0;entryDy=0;" edge="1" parent="WIyWlLk6GJQsqaUBKTNV-1" source="DhkU2p6pfQPHo_M8S7Rk-5" target="DhkU2p6pfQPHo_M8S7Rk-4">
          <mxGeometry relative="1" as="geometry" />
        </mxCell>
        <mxCell id="DhkU2p6pfQPHo_M8S7Rk-5" value="get next item from list" style="rounded=0;whiteSpace=wrap;html=1;fillColor=#dae8fc;strokeColor=#6c8ebf;" vertex="1" parent="WIyWlLk6GJQsqaUBKTNV-1">
          <mxGeometry x="205" y="170" width="130" height="30" as="geometry" />
        </mxCell>
        <mxCell id="DhkU2p6pfQPHo_M8S7Rk-13" style="edgeStyle=orthogonalEdgeStyle;rounded=0;orthogonalLoop=1;jettySize=auto;html=1;exitX=0.5;exitY=1;exitDx=0;exitDy=0;" edge="1" parent="WIyWlLk6GJQsqaUBKTNV-1" source="DhkU2p6pfQPHo_M8S7Rk-6" target="DhkU2p6pfQPHo_M8S7Rk-9">
          <mxGeometry relative="1" as="geometry" />
        </mxCell>
        <mxCell id="DhkU2p6pfQPHo_M8S7Rk-14" style="edgeStyle=orthogonalEdgeStyle;rounded=0;orthogonalLoop=1;jettySize=auto;html=1;entryX=0;entryY=0.5;entryDx=0;entryDy=0;" edge="1" parent="WIyWlLk6GJQsqaUBKTNV-1" source="DhkU2p6pfQPHo_M8S7Rk-6" target="DhkU2p6pfQPHo_M8S7Rk-10">
          <mxGeometry relative="1" as="geometry" />
        </mxCell>
        <mxCell id="DhkU2p6pfQPHo_M8S7Rk-6" value="min1 &amp;lt; min2" style="rhombus;whiteSpace=wrap;html=1;fillColor=#ffe6cc;strokeColor=#d79b00;" vertex="1" parent="WIyWlLk6GJQsqaUBKTNV-1">
          <mxGeometry x="175" y="280" width="190" height="20" as="geometry" />
        </mxCell>
        <mxCell id="DhkU2p6pfQPHo_M8S7Rk-31" value="" style="edgeStyle=orthogonalEdgeStyle;rounded=0;orthogonalLoop=1;jettySize=auto;html=1;" edge="1" parent="WIyWlLk6GJQsqaUBKTNV-1" source="DhkU2p6pfQPHo_M8S7Rk-9" target="DhkU2p6pfQPHo_M8S7Rk-23">
          <mxGeometry relative="1" as="geometry" />
        </mxCell>
        <mxCell id="DhkU2p6pfQPHo_M8S7Rk-9" value="min2 = item" style="rounded=0;whiteSpace=wrap;html=1;fillColor=#dae8fc;strokeColor=#6c8ebf;" vertex="1" parent="WIyWlLk6GJQsqaUBKTNV-1">
          <mxGeometry x="205" y="340" width="130" height="30" as="geometry" />
        </mxCell>
        <mxCell id="DhkU2p6pfQPHo_M8S7Rk-37" style="edgeStyle=orthogonalEdgeStyle;rounded=0;orthogonalLoop=1;jettySize=auto;html=1;exitX=0.5;exitY=1;exitDx=0;exitDy=0;" edge="1" parent="WIyWlLk6GJQsqaUBKTNV-1" source="DhkU2p6pfQPHo_M8S7Rk-10">
          <mxGeometry relative="1" as="geometry">
            <mxPoint x="270" y="380" as="targetPoint" />
            <Array as="points">
              <mxPoint x="495" y="380" />
            </Array>
          </mxGeometry>
        </mxCell>
        <mxCell id="DhkU2p6pfQPHo_M8S7Rk-10" value="min1 = item" style="rounded=0;whiteSpace=wrap;html=1;fillColor=#dae8fc;strokeColor=#6c8ebf;" vertex="1" parent="WIyWlLk6GJQsqaUBKTNV-1">
          <mxGeometry x="430" y="275" width="130" height="30" as="geometry" />
        </mxCell>
        <mxCell id="DhkU2p6pfQPHo_M8S7Rk-16" style="edgeStyle=orthogonalEdgeStyle;rounded=0;orthogonalLoop=1;jettySize=auto;html=1;entryX=0;entryY=0.5;entryDx=0;entryDy=0;exitX=1;exitY=0.5;exitDx=0;exitDy=0;" edge="1" parent="WIyWlLk6GJQsqaUBKTNV-1" source="DhkU2p6pfQPHo_M8S7Rk-11" target="DhkU2p6pfQPHo_M8S7Rk-9">
          <mxGeometry relative="1" as="geometry" />
        </mxCell>
        <mxCell id="DhkU2p6pfQPHo_M8S7Rk-30" style="edgeStyle=orthogonalEdgeStyle;rounded=0;orthogonalLoop=1;jettySize=auto;html=1;entryX=0;entryY=0.5;entryDx=0;entryDy=0;exitX=0.5;exitY=1;exitDx=0;exitDy=0;" edge="1" parent="WIyWlLk6GJQsqaUBKTNV-1" source="DhkU2p6pfQPHo_M8S7Rk-11" target="DhkU2p6pfQPHo_M8S7Rk-23">
          <mxGeometry relative="1" as="geometry" />
        </mxCell>
        <mxCell id="DhkU2p6pfQPHo_M8S7Rk-11" value="item &amp;lt; min2" style="rhombus;whiteSpace=wrap;html=1;fillColor=#ffe6cc;strokeColor=#d79b00;" vertex="1" parent="WIyWlLk6GJQsqaUBKTNV-1">
          <mxGeometry x="-30" y="345" width="190" height="20" as="geometry" />
        </mxCell>
        <mxCell id="DhkU2p6pfQPHo_M8S7Rk-17" value="&lt;b&gt;Y&lt;/b&gt;" style="text;html=1;resizable=0;autosize=1;align=center;verticalAlign=middle;points=[];fillColor=none;strokeColor=none;rounded=0;" vertex="1" parent="WIyWlLk6GJQsqaUBKTNV-1">
          <mxGeometry x="280" y="245" width="30" height="30" as="geometry" />
        </mxCell>
        <mxCell id="DhkU2p6pfQPHo_M8S7Rk-18" value="&lt;b&gt;Y&lt;/b&gt;" style="text;html=1;resizable=0;autosize=1;align=center;verticalAlign=middle;points=[];fillColor=none;strokeColor=none;rounded=0;" vertex="1" parent="WIyWlLk6GJQsqaUBKTNV-1">
          <mxGeometry x="280" y="300" width="30" height="30" as="geometry" />
        </mxCell>
        <mxCell id="DhkU2p6pfQPHo_M8S7Rk-19" value="&lt;b&gt;N&lt;/b&gt;" style="text;html=1;resizable=0;autosize=1;align=center;verticalAlign=middle;points=[];fillColor=none;strokeColor=none;rounded=0;" vertex="1" parent="WIyWlLk6GJQsqaUBKTNV-1">
          <mxGeometry x="160" y="240" width="30" height="30" as="geometry" />
        </mxCell>
        <mxCell id="DhkU2p6pfQPHo_M8S7Rk-20" value="&lt;b&gt;N&lt;/b&gt;" style="text;html=1;resizable=0;autosize=1;align=center;verticalAlign=middle;points=[];fillColor=none;strokeColor=none;rounded=0;" vertex="1" parent="WIyWlLk6GJQsqaUBKTNV-1">
          <mxGeometry x="60" y="360" width="30" height="30" as="geometry" />
        </mxCell>
        <mxCell id="DhkU2p6pfQPHo_M8S7Rk-21" value="&lt;b&gt;Y&lt;/b&gt;" style="text;html=1;resizable=0;autosize=1;align=center;verticalAlign=middle;points=[];fillColor=none;strokeColor=none;rounded=0;" vertex="1" parent="WIyWlLk6GJQsqaUBKTNV-1">
          <mxGeometry x="150" y="330" width="30" height="30" as="geometry" />
        </mxCell>
        <mxCell id="DhkU2p6pfQPHo_M8S7Rk-27" style="edgeStyle=orthogonalEdgeStyle;rounded=0;orthogonalLoop=1;jettySize=auto;html=1;entryX=0.5;entryY=0;entryDx=0;entryDy=0;" edge="1" parent="WIyWlLk6GJQsqaUBKTNV-1" source="DhkU2p6pfQPHo_M8S7Rk-23" target="DhkU2p6pfQPHo_M8S7Rk-2">
          <mxGeometry relative="1" as="geometry" />
        </mxCell>
        <mxCell id="DhkU2p6pfQPHo_M8S7Rk-36" style="edgeStyle=orthogonalEdgeStyle;rounded=0;orthogonalLoop=1;jettySize=auto;html=1;" edge="1" parent="WIyWlLk6GJQsqaUBKTNV-1" source="DhkU2p6pfQPHo_M8S7Rk-23" target="DhkU2p6pfQPHo_M8S7Rk-5">
          <mxGeometry relative="1" as="geometry">
            <Array as="points">
              <mxPoint x="610" y="410" />
              <mxPoint x="610" y="178" />
            </Array>
          </mxGeometry>
        </mxCell>
        <mxCell id="DhkU2p6pfQPHo_M8S7Rk-23" value="items remaining" style="rhombus;whiteSpace=wrap;html=1;fillColor=#ffe6cc;strokeColor=#d79b00;" vertex="1" parent="WIyWlLk6GJQsqaUBKTNV-1">
          <mxGeometry x="175" y="400" width="190" height="20" as="geometry" />
        </mxCell>
        <mxCell id="DhkU2p6pfQPHo_M8S7Rk-32" value="&lt;b&gt;N&lt;/b&gt;" style="text;html=1;resizable=0;autosize=1;align=center;verticalAlign=middle;points=[];fillColor=none;strokeColor=none;rounded=0;" vertex="1" parent="WIyWlLk6GJQsqaUBKTNV-1">
          <mxGeometry x="270" y="410" width="30" height="30" as="geometry" />
        </mxCell>
        <mxCell id="DhkU2p6pfQPHo_M8S7Rk-38" value="&lt;b&gt;Y&lt;/b&gt;" style="text;html=1;resizable=0;autosize=1;align=center;verticalAlign=middle;points=[];fillColor=none;strokeColor=none;rounded=0;" vertex="1" parent="WIyWlLk6GJQsqaUBKTNV-1">
          <mxGeometry x="350" y="410" width="30" height="30" as="geometry" />
        </mxCell>
      </root>
    </mxGraphModel>
  </diagram>
</mxfile>
